Coordinates
version=1
nRows=24
nColumns=24
inDegrees=yes

Units are S.I. units (second, meters, Newtons, ...)
Angles are in degrees.

endheader
time	pelvis_tilt	pelvis_list	pelvis_rotation	pelvis_tx	pelvis_ty	pelvis_tz	hip_flexion_r	hip_adduction_r	hip_rotation_r	knee_angle_r	ankle_angle_r	subtalar_angle_r	mtp_angle_r	hip_flexion_l	hip_adduction_l	hip_rotation_l	knee_angle_l	ankle_angle_l	subtalar_angle_l	mtp_angle_l	lumbar_extension	lumbar_bending	lumbar_rotation
      1.52533333	     -1.09057498	      6.68536865	      0.86625913	      0.51767404	      0.99025812	      0.31758685	     18.71272003	     -8.89485659	     -0.19600159	    -66.10436801	      4.01356982	     -8.53003834	      5.18373156	      9.83188591	     12.88852423	      4.37672626	    -13.92727179	      3.56800367	    -16.08750936	     -0.51355117	      2.12919289	     -5.02114725	      5.44517173
      1.52950000	     -0.96971582	      6.61318193	      1.00856152	      0.52253347	      0.99103365	      0.31731750	     19.15904235	     -8.80755625	     -0.17500321	    -65.66759962	      4.44516485	     -8.62468329	      4.91088385	      9.15158171	     12.82714966	      4.64909877	    -13.51790792	      3.58221994	    -16.12334512	     -0.58703653	      1.97134245	     -4.94739851	      5.19714031
      1.53366667	     -0.89391864	      6.53404170	      1.13367117	      0.52731783	      0.99168112	      0.31710784	     19.66297306	     -8.69384204	     -0.11626949	    -65.21400875	      4.93574507	     -8.70223782	      4.81207026	      8.56595021	     12.74515575	      4.84045500	    -13.18913805	      3.70899940	    -16.04374130	     -0.60996587	      1.84811270	     -4.87020729	      5.10608453
      1.53783333	     -0.82403057	      6.43114350	      1.28560722	      0.53214016	      0.99231451	      0.31685867	     20.13928116	     -8.56889798	     -0.10386548	    -64.69570284	      5.39386637	     -8.77195645	      4.74813637	      7.98281778	     12.63640559	      5.03798039	    -12.85715946	      3.80474232	    -15.95937222	     -0.62353914	      1.75792918	     -4.75066817	      4.99656693
      1.54200000	     -0.72207068	      6.35602498	      1.42645811	      0.53692319	      0.99293135	      0.31662979	     20.57735494	     -8.47158129	     -0.07612494	    -64.14806057	      5.82940856	     -8.83616952	      4.66917432	      7.36613770	     12.55413238	      5.24936833	    -12.51908762	      3.89941591	    -15.89549072	     -0.63969520	      1.60393797	     -4.67790528	      4.83073867
      1.54616667	     -0.60621524	      6.29263369	      1.55738119	      0.54171894	      0.99353019	      0.31639971	     20.98881094	     -8.38840726	     -0.03983967	    -63.56166814	      6.18759436	     -8.88364673	      4.50970653	      6.72051314	     12.48145931	      5.47228616	    -12.15013728	      3.98174902	    -15.87755087	     -0.67281365	      1.43575394	     -4.61334349	      4.57172982
      1.55033333	     -0.52904367	      6.20002648	      1.71667922	      0.54648820	      0.99406477	      0.31616512	     21.41623026	     -8.27530914	     -0.03090422	    -62.92223012	      6.58102848	     -8.91594767	      4.42035141	      6.14894724	     12.37443362	      5.68212437	    -11.84564782	      4.06969212	    -15.80216385	     -0.68909594	      1.31994848	     -4.52639359	      4.45259493
      1.55450000	     -0.42788390	      6.13591487	      1.86227043	      0.55125554	      0.99456920	      0.31591672	     21.81429069	     -8.20273073	     -0.02155524	    -62.25859998	      6.89227944	     -8.94219012	      4.16834779	      5.52877303	     12.29611922	      5.91610583	    -11.48627608	      4.11633867	    -15.77744105	     -0.73645822	      1.16209842	     -4.45089044	      4.18010908
      1.55866667	     -0.37790407	      6.06404308	      2.01191043	      0.55599086	      0.99495010	      0.31569469	     22.25780579	     -8.11320238	     -0.00066450	    -61.56742846	      7.26399326	     -8.98540394	      4.08691012	      5.00582813	     12.20560302	      6.09894128	    -11.21135437	      4.25738205	    -15.70381043	     -0.74798006	      1.07633811	     -4.37962456	      4.09237262
      1.56283333	     -0.27350608	      5.98692151	      2.16072269	      0.56073916	      0.99539256	      0.31546622	     22.61751828	     -8.02261909	      0.00275711	    -60.82269801	      7.57063656	     -9.03568410	      3.98671349	      4.41207863	     12.10456791	      6.29344517	    -10.90885249	      4.36610312	    -15.62757513	     -0.76166983	      0.91789939	     -4.29500266	      3.92303031
      1.56700000	     -0.16637689	      5.94108776	      2.29140425	      0.56548268	      0.99578224	      0.31525130	     22.97331747	     -7.96704115	      0.02063930	    -60.06159771	      7.81538538	     -9.09282944	      3.81530935	      3.80387767	     12.03408347	      6.49158710	    -10.57670567	      4.46389730	    -15.59114881	     -0.78549534	      0.74991461	     -4.24399871	      3.68092668
      1.57116667	     -0.10838041	      5.88344562	      2.44108259	      0.57019724	      0.99606104	      0.31502790	     23.36557962	     -7.90060825	      0.02776755	    -59.26778788	      8.07267513	     -9.15983462	      3.63633155	      3.27364617	     11.95169946	      6.69426743	    -10.29420733	      4.57352664	    -15.54692668	     -0.80861076	      0.64129292	     -4.18404981	      3.49137806
      1.57533333	     -0.03402161	      5.83204208	      2.58588581	      0.57490490	      0.99632863	      0.31480895	     23.72485376	     -7.84211181	      0.03215370	    -58.43750007	      8.29047127	     -9.22619302	      3.44114822	      2.72869231	     11.87217130	      6.88928876	    -10.01333583	      4.67901840	    -15.49185464	     -0.83139847	      0.50951265	     -4.13030004	      3.30803616
      1.57950000	      0.03740722	      5.77932007	      2.72837956	      0.57961478	      0.99656576	      0.31460279	     24.07105028	     -7.78194967	      0.03278658	    -57.57392528	      8.48752977	     -9.31537477	      3.26748932	      2.19277316	     11.78711064	      7.07188307	     -9.74292279	      4.79866351	    -15.43160882	     -0.84932584	      0.38405783	     -4.07498025	      3.14616142
      1.58366667	      0.10734893	      5.74512097	      2.86726990	      0.58430786	      0.99675292	      0.31439683	     24.40970702	     -7.74320550	      0.03713248	    -56.68797903	      8.65815189	     -9.40760281	      3.06281157	      1.66024544	     11.72108341	      7.26573424	     -9.47322501	      4.90316071	    -15.38364806	     -0.86994850	      0.25198965	     -4.04083337	      2.95724992
      1.58783333	      0.14228386	      5.69354017	      3.02161397	      0.58898188	      0.99685769	      0.31417951	     24.76635360	     -7.69348132	      0.01888306	    -55.76745765	      8.83141843	     -9.48627388	      2.96407774	      1.18997568	     11.63606817	      7.45060532	     -9.25227341	      5.03662542	    -15.31221731	     -0.87648771	      0.16989645	     -3.98275451	      2.85728073
      1.59200000	      0.19979294	      5.66719264	      3.15214642	      0.59366969	      0.99695130	      0.31399340	     25.09164074	     -7.66388774	      0.01968546	    -54.82852366	      8.95811542	     -9.60383680	      2.84797685	      0.68097670	     11.57308583	      7.62807324	     -9.00010655	      5.16343597	    -15.25093762	     -0.88490616	      0.05048741	     -3.95284761	      2.69482816
      1.59616667	      0.23535960	      5.63842739	      3.28417281	      0.59835006	      0.99698213	      0.31380340	     25.42530601	     -7.63401596	      0.01457339	    -53.86002830	      9.06550194	     -9.72403616	      2.72934442	      0.20504681	     11.50823747	      7.80757506	     -8.76595173	      5.29302035	    -15.19864485	     -0.89350293	     -0.03936820	     -3.92242120	      2.53389070
      1.60033333	      0.31955365	      5.63311323	      3.38684767	      0.60303339	      0.99704548	      0.31365703	     25.69934816	     -7.61815505	      0.02986081	    -52.87327628	      9.13859369	     -9.87760362	      2.51101169	     -0.34018520	     11.46072269	      7.97148079	     -8.49100108	      5.40248139	    -15.17136419	     -0.91307356	     -0.19891471	     -3.93284957	      2.30893138
      1.60450000	      0.27837836	      5.63588005	      3.49913275	      0.60769923	      0.99685957	      0.31348046	     26.11084023	     -7.62353755	      0.04481200	    -51.89200255	      9.24793109	     -9.92028218	      2.46633688	     -0.72238290	     11.43211281	      8.13137701	     -8.27536652	      5.54973360	    -15.08403435	     -0.91298770	     -0.19125040	     -3.93806949	      2.26920820
      1.60866667	      0.36676823	      5.59512439	      3.63438284	      0.61238640	      0.99689543	      0.31330827	     26.32241780	     -7.58748208	     -0.01043487	    -50.81935892	      9.30089981	    -10.08287939	      2.33467857	     -1.24438270	     11.34257393	      8.31423357	     -8.06421652	      5.69151922	    -15.05549186	     -0.92379643	     -0.36477731	     -3.88919693	      2.08683412
      1.61283333	      0.37872071	      5.59944418	      3.73749210	      0.61706895	      0.99674444	      0.31315749	     26.63389031	     -7.59069057	     -0.01185614	    -49.76956160	      9.35943903	    -10.19288071	      2.20674770	     -1.69051370	     11.30716782	      8.48279193	     -7.83584143	      5.82118828	    -15.01382164	     -0.93514253	     -0.43117791	     -3.89794529	      1.93977477
      1.61700000	      0.42375586	      5.62086757	      3.81832797	      0.62175515	      0.99660226	      0.31302990	     26.89963381	     -7.60406964	     -0.00075741	    -48.70139693	      9.40169126	    -10.31693899	      1.94206110	     -2.18204736	     11.28676707	      8.64629693	     -7.58617617	      5.93003986	    -15.01017230	     -0.96675969	     -0.53792174	     -3.92652094	      1.73221694
      1.62116667	      0.36736113	      5.64906062	      3.90712944	      0.62642891	      0.99626827	      0.31290083	     27.27297701	     -7.63330398	      0.00602504	    -47.63558293	      9.48908065	    -10.33218730	      1.89715475	     -2.53966227	     11.28013715	      8.79709749	     -7.38753826	      6.08586699	    -14.93341143	     -0.96837867	     -0.52593022	     -3.96479947	      1.70846696
